Coordinates
version=1
nRows=19
nColumns=63
inDegrees=yes

Units are S.I. units (second, meters, Newtons, ...)
If the header above contains a line with 'inDegrees', this indicates whether rotational values are in degrees (yes) or radians (no).

endheader
time	pelvis_tilt	pelvis_list	pelvis_rotation	pelvis_tx	pelvis_ty	pelvis_tz	hip_flexion_r	hip_adduction_r	hip_rotation_r	knee_angle_r	knee_angle_r_beta	ankle_angle_r	subtalar_angle_r	mtp_angle_r	hip_flexion_l	hip_adduction_l	hip_rotation_l	knee_angle_l	knee_angle_l_beta	ankle_angle_l	subtalar_angle_l	mtp_angle_l	L5_S1_Flex_Ext	L5_S1_Lat_Bending	L5_S1_axial_rotation	L4_L5_Flex_Ext	L4_L5_Lat_Bending	L4_L5_axial_rotation	L3_L4_Flex_Ext	L3_L4_Lat_Bending	L3_L4_axial_rotation	L2_L3_Flex_Ext	L2_L3_Lat_Bending	L2_L3_axial_rotation	L1_L2_Flex_Ext	L1_L2_Lat_Bending	L1_L2_axial_rotation	L1_T12_Flex_Ext	L1_T12_Lat_Bending	L1_T12_axial_rotation	Abs_r3	Abs_r2	Abs_r1	Abs_t1	Abs_t2	neck_flexion	neck_bending	neck_rotation	arm_flex_r	arm_add_r	arm_rot_r	elbow_flex_r	pro_sup_r	wrist_flex_r	wrist_dev_r	arm_flex_l	arm_add_l	arm_rot_l	elbow_flex_l	pro_sup_l	wrist_flex_l	wrist_dev_l
5.000000	-1.390054	-21.367140	101.561437	0.241496	0.378565	0.689756	9.881702	-2.084831	-15.501227	6.169445	0.107677	12.291707	7.200268	0.000000	9.952071	2.831318	-16.006945	2.074105	0.036200	13.141574	9.682044	0.000000	0.013491	-0.186360	2.235495	0.025054	-0.247858	2.375213	0.022164	-0.453115	2.375213	0.015419	-0.453115	1.956058	0.012527	-0.380025	1.816339	0.007709	-0.288671	1.676621	0.096363	-2.108137	12.433150	0.000000	0.000000	18.642025	-0.905892	-2.338602	22.165082	-9.169077	84.594942	147.491330	91.576698	-65.991000	-25.827719	18.689922	-17.457309	69.957738	149.696441	89.117415	-20.321655	-9.712695
5.019231	-1.389327	-21.279492	101.479346	0.241366	0.378176	0.689813	9.809302	-2.076829	-15.047341	6.162290	0.107552	12.433945	7.031012	0.000000	9.890313	2.802083	-16.187489	2.185483	0.038144	13.126047	9.560457	0.000000	0.015033	-0.177947	2.304670	0.027918	-0.236670	2.448712	0.024698	-0.432661	2.448712	0.017182	-0.432661	2.016586	0.013960	-0.362870	1.872544	0.008590	-0.275640	1.728502	0.107382	-2.012973	12.817882	0.000000	0.000000	18.301856	-0.852309	-2.162990	21.634011	-9.512008	84.436950	147.595698	93.048439	-63.709096	-26.649840	18.930042	-17.410970	69.924083	149.705533	89.134015	-19.511470	-9.987694
5.038462	-1.379305	-21.198288	101.450912	0.241178	0.377785	0.689937	9.737069	-2.073578	-14.721911	6.156434	0.107450	12.573385	6.909293	0.000000	9.825187	2.782868	-16.159307	2.260234	0.039449	13.027657	9.202394	0.000000	0.015685	-0.169477	2.378736	0.029129	-0.225404	2.527407	0.025770	-0.412066	2.527407	0.017927	-0.412066	2.081394	0.014565	-0.345597	1.932723	0.008963	-0.262520	1.784052	0.112039	-1.917157	13.229817	0.000000	0.000000	17.823436	-0.892889	-2.141736	20.850096	-9.815435	83.702449	147.689949	93.315595	-59.154305	-26.582108	19.221005	-17.355744	69.878110	149.714033	89.156362	-18.408788	-10.204615
5.057692	-1.372867	-21.128510	101.442835	0.241007	0.377407	0.690087	9.673634	-2.080816	-14.517656	6.161123	0.107532	12.716209	6.855860	0.000000	9.754386	2.778553	-15.998407	2.293277	0.040025	12.905639	8.706398	0.000000	0.015730	-0.163329	2.460554	0.029212	-0.217228	2.614338	0.025842	-0.397118	2.614338	0.017978	-0.397118	2.152984	0.014607	-0.333061	1.999200	0.008988	-0.252997	1.845415	0.112356	-1.847610	13.684861	0.000000	0.000000	17.183739	-1.058189	-2.336478	19.851578	-10.050809	82.404399	147.757005	92.386976	-52.676109	-25.603863	19.571646	-17.304063	69.877544	149.722935	89.182090	-17.206843	-10.308374
5.076923	-1.355259	-21.068958	101.500142	0.240785	0.377083	0.690256	9.610907	-2.082863	-14.403708	6.159553	0.107504	12.846496	6.770035	0.000000	9.685049	2.780273	-15.795920	2.286975	0.039915	12.788172	8.268961	0.000000	0.014975	-0.157224	2.536933	0.027810	-0.209108	2.695492	0.024602	-0.382275	2.695492	0.017115	-0.382275	2.219817	0.013906	-0.320612	2.061258	0.008557	-0.243540	1.902700	0.106964	-1.778552	14.109662	0.000000	0.000000	16.367930	-1.339845	-2.664243	18.692718	-10.232361	80.577377	147.793682	90.620583	-44.567524	-24.066342	19.929462	-17.242526	69.884140	149.730736	89.211690	-15.912871	-10.224554
5.096154	-1.320401	-21.013752	101.627962	0.240496	0.376846	0.690420	9.542316	-2.075482	-14.445112	6.146040	0.107269	12.983262	6.755868	0.000000	9.613816	2.783045	-15.473397	2.243617	0.039159	12.674055	7.784189	0.000000	0.012912	-0.150066	2.603224	0.023980	-0.199588	2.765925	0.021214	-0.364870	2.765925	0.014758	-0.364870	2.277821	0.011991	-0.306014	2.115119	0.007378	-0.232452	1.952418	0.092233	-1.697576	14.478348	0.000000	0.000000	15.368062	-1.740090	-3.118737	17.447298	-10.385248	78.278309	147.825131	88.045713	-35.180101	-22.032106	20.267974	-17.159592	69.889395	149.737179	89.244908	-14.620069	-9.882270
5.115385	-1.263206	-20.958652	101.833905	0.240113	0.376715	0.690557	9.458741	-2.050720	-14.645826	6.103444	0.106525	13.127751	6.824878	0.000000	9.538983	2.781215	-15.032645	2.168172	0.037842	12.573198	7.281963	0.000000	0.009524	-0.140678	2.649173	0.017687	-0.187101	2.814747	0.015647	-0.342043	2.814747	0.010885	-0.342043	2.318027	0.008844	-0.286870	2.152453	0.005442	-0.217909	1.986880	0.068030	-1.591372	14.733907	0.000000	0.000000	14.196088	-2.230296	-3.606124	16.240801	-10.538672	75.629069	147.841431	85.038516	-24.742594	-19.936587	20.537879	-17.059376	69.912154	149.743370	89.290526	-13.532741	-9.343281
5.134615	-1.180676	-20.894253	102.093719	0.239676	0.376699	0.690641	9.356046	-1.996316	-14.955621	6.028577	0.105219	13.270148	6.952294	0.000000	9.449050	2.763363	-14.497551	2.062347	0.035995	12.488512	6.764040	0.000000	0.003988	-0.128518	2.676827	0.007406	-0.170929	2.844129	0.006551	-0.312478	2.844129	0.004558	-0.312478	2.342224	0.003703	-0.262073	2.174922	0.002279	-0.199074	2.007621	0.028484	-1.453818	14.887711	0.000000	0.000000	12.866171	-2.790597	-4.089833	15.194670	-10.693595	72.859902	147.869480	80.971388	-13.554672	-17.296712	20.712643	-16.943236	69.973958	149.750857	89.396340	-12.806494	-8.690410
5.153846	-1.067694	-20.817802	102.390919	0.239170	0.376802	0.690677	9.240897	-1.906853	-15.364189	5.925429	0.103418	13.400214	7.148339	0.000000	9.345002	2.716773	-14.093596	1.936392	0.033796	12.451841	6.539837	0.000000	-0.003338	-0.112012	2.684252	-0.006199	-0.148976	2.852017	-0.005484	-0.272345	2.852017	-0.003815	-0.272345	2.348720	-0.003100	-0.228414	2.180954	-0.001907	-0.173506	2.013189	-0.023845	-1.267098	14.929002	0.000000	0.000000	11.400277	-3.365830	-4.456248	14.400454	-10.836609	70.261950	147.904267	75.749042	-2.117926	-14.080099	20.770805	-16.835518	70.150535	149.760305	89.969670	-12.780102	-8.224330
5.173077	-0.918174	-20.727940	102.736341	0.238569	0.377003	0.690687	9.117776	-1.778951	-15.872122	5.798503	0.101203	13.504062	7.396967	0.000000	9.229732	2.639713	-13.669595	1.794972	0.031328	12.442067	6.412711	0.000000	-0.011849	-0.090795	2.671371	-0.022006	-0.120757	2.838331	-0.019468	-0.220758	2.838331	-0.013543	-0.220758	2.337449	-0.011003	-0.185148	2.170489	-0.006771	-0.140641	2.003528	-0.084640	-1.027087	14.857363	0.000000	0.000000	9.806244	-3.919283	-4.714392	13.858488	-10.943425	68.072625	147.969694	69.326311	8.964921	-10.227965	20.735028	-16.785035	70.382784	149.774038	91.673759	-13.278131	-8.529364
5.192308	-0.740301	-20.635999	103.154938	0.237895	0.377251	0.690682	8.994209	-1.622464	-16.441362	5.646204	0.098545	13.559118	7.608219	0.000000	9.120317	2.541041	-13.207442	1.652588	0.028843	12.446155	6.393200	0.000000	-0.020161	-0.066106	2.634602	-0.037442	-0.087921	2.799265	-0.033123	-0.160730	2.799265	-0.023042	-0.160730	2.305277	-0.018722	-0.134804	2.140615	-0.011520	-0.102398	1.975952	-0.144010	-0.747805	14.652869	0.000000	0.000000	8.094907	-4.421037	-4.809677	13.555684	-10.931643	66.516135	148.021016	61.755132	19.195101	-5.737283	20.609594	-16.837150	70.569522	149.792824	93.522879	-13.332311	-9.204350
5.211538	-0.542959	-20.556935	103.631301	0.237177	0.377475	0.690640	8.883646	-1.444906	-16.990579	5.475764	0.095570	13.536759	7.674123	0.000000	9.027501	2.429006	-12.727615	1.514907	0.026440	12.466911	6.484223	0.000000	-0.026829	-0.039670	2.579355	-0.049825	-0.052762	2.740564	-0.044078	-0.096455	2.740564	-0.030663	-0.096455	2.256935	-0.024914	-0.080896	2.095726	-0.015330	-0.061449	1.934516	-0.191640	-0.448759	14.345597	0.000000	0.000000	6.286097	-4.875683	-4.752324	13.438044	-10.735000	65.725122	148.004121	52.936349	28.366609	-0.403842	20.379144	-17.039165	70.742127	149.824535	94.077170	-12.623104	-9.337978
5.230769	-0.342370	-20.509353	104.148820	0.236467	0.377586	0.690567	8.805285	-1.264306	-17.458811	5.302613	0.092548	13.434299	7.528902	0.000000	8.967733	2.317993	-12.233746	1.390449	0.024268	12.495830	6.654252	0.000000	-0.031226	-0.015266	2.513801	-0.057990	-0.020304	2.670914	-0.051301	-0.037118	2.670914	-0.035688	-0.037118	2.199576	-0.028996	-0.031131	2.042463	-0.017842	-0.023647	1.885351	-0.223044	-0.172694	13.981008	0.000000	0.000000	4.440400	-5.235826	-4.575305	13.421968	-10.371969	65.659815	147.915694	45.021160	35.937791	4.664078	20.048635	-17.474205	70.955039	149.881973	92.708954	-11.062925	-8.559274
5.250000	-0.140552	-20.509409	104.664501	0.235783	0.377498	0.690519	8.785104	-1.082533	-17.724952	5.138081	0.089676	13.252300	7.095175	0.000000	8.958481	2.214264	-11.660697	1.278522	0.022314	12.525773	6.725374	0.000000	-0.031782	0.006481	2.448202	-0.059023	0.008620	2.601215	-0.052215	0.015759	2.601215	-0.036324	0.015759	2.142177	-0.029513	0.013217	1.989164	-0.018160	0.010040	1.836152	-0.227017	0.073318	13.616167	0.000000	0.000000	2.631586	-5.482374	-4.270813	13.449417	-9.957572	66.160172	147.750390	39.000864	41.812950	8.961147	19.576506	-18.175283	71.160189	149.919296	89.559121	-8.234060	-6.893810
5.269231	0.062590	-20.557183	105.166416	0.235132	0.377190	0.690565	8.832775	-0.906108	-17.777832	4.997433	0.087222	13.012098	6.401762	0.000000	9.005531	2.115203	-11.058914	1.181655	0.020624	12.559319	6.737327	0.000000	-0.028728	0.025217	2.387607	-0.053351	0.033538	2.536833	-0.047197	0.061312	2.536833	-0.032833	0.061312	2.089156	-0.026677	0.051422	1.939931	-0.016415	0.039061	1.790705	-0.205202	0.285259	13.279154	0.000000	0.000000	0.909398	-5.616480	-3.903478	13.492326	-9.562977	66.987127	147.493954	34.972401	45.936039	12.412620	18.906318	-19.132017	71.373210	149.878370	84.762065	-4.202871	-4.439540
5.288462	0.266399	-20.654142	105.685305	0.234514	0.376676	0.690845	8.955687	-0.744796	-17.593860	4.882465	0.085215	12.715683	5.384335	0.000000	9.137596	2.026776	-10.476827	1.127469	0.019678	12.594238	6.756356	0.000000	-0.023018	0.040023	2.314654	-0.042747	0.053230	2.459320	-0.037816	0.097311	2.459320	-0.026307	0.097311	2.025322	-0.021375	0.081614	1.880656	-0.013153	0.061995	1.735990	-0.164416	0.452745	12.873411	0.000000	0.000000	-0.649658	-5.615194	-3.450317	13.698354	-9.199935	68.133578	147.101866	33.007075	47.437127	14.847420	17.894129	-20.289469	71.517117	149.778961	78.217102	0.510620	-1.014747
5.307692	0.475669	-20.793602	106.237599	0.233962	0.375951	0.691407	9.150379	-0.609840	-17.338633	4.808551	0.083925	12.436296	4.272298	0.000000	9.360938	1.950818	-9.878145	1.126035	0.019653	12.638881	6.751914	0.000000	-0.015791	0.051972	2.225905	-0.029326	0.069123	2.365024	-0.025943	0.126365	2.365024	-0.018048	0.126365	1.947667	-0.014664	0.105981	1.808548	-0.009023	0.080505	1.669429	-0.112794	0.587917	12.379815	0.000000	0.000000	-2.016612	-5.517332	-2.879162	14.072153	-8.879732	69.372814	146.486108	33.460478	46.232185	16.069360	16.465742	-21.525644	71.470975	149.647218	70.023398	5.750819	3.330280
5.326923	0.719463	-20.998078	106.851636	0.233359	0.374972	0.692298	9.440167	-0.505600	-17.187173	4.777825	0.083389	12.221002	3.295785	0.000000	9.713653	1.886876	-9.228790	1.180530	0.020604	12.704699	6.695141	0.000000	-0.004839	0.064780	2.120465	-0.008986	0.086157	2.252994	-0.007949	0.157505	2.252994	-0.005530	0.157505	1.855406	-0.004493	0.132099	1.722877	-0.002765	0.100344	1.590348	-0.034562	0.732800	11.793387	0.000000	0.000000	-3.053334	-5.422240	-2.202948	14.465750	-8.732485	70.145266	145.493608	36.171798	44.086224	16.162287	14.609050	-22.699451	71.185609	149.528542	62.753858	11.198332	7.159662
5.346154	0.991830	-21.249977	107.522202	0.232753	0.373827	0.693503	9.800272	-0.428426	-17.105868	4.786783	0.083545	12.063867	2.408505	0.000000	10.178842	1.836011	-8.505767	1.288912	0.022496	12.773466	6.535635	0.000000	0.007876	0.080120	1.996335	0.014627	0.106559	2.121106	0.012940	0.194803	2.121106	0.009002	0.194803	1.746794	0.007314	0.163380	1.622023	0.004500	0.124105	1.497252	0.056259	0.906331	11.103019	0.000000	0.000000	-3.782916	-5.355147	-1.353804	14.979379	-8.689276	70.583833	143.975071	40.335857	40.436456	15.528373	12.434608	-23.682209	70.698419	149.432774	56.822148	16.556355	10.411528
